<?xml version="1.0" encoding="UTF-8"?>
<svg id="Capa_1" data-name="Capa 1" xmlns="http://www.w3.org/2000/svg" xmlns:xlink="http://www.w3.org/1999/xlink" viewBox="0 0 35.84 41.56">
  <defs>
    <style>
      .cls-1 {
        fill: url(#Degradado_sin_nombre_24);
      }

      .cls-1, .cls-2, .cls-3, .cls-4, .cls-5 {
        fill-rule: evenodd;
        stroke-width: 0px;
      }

      .cls-2 {
        fill: url(#Degradado_sin_nombre_24-4);
      }

      .cls-3 {
        fill: url(#Degradado_sin_nombre_24-3);
      }

      .cls-4 {
        fill: url(#Degradado_sin_nombre_24-2);
      }

      .cls-5 {
        fill: url(#Degradado_sin_nombre_24-5);
      }
    </style>
    <linearGradient id="Degradado_sin_nombre_24" data-name="Degradado sin nombre 24" x1="19.78" y1="31.61" x2="33.72" y2="31.61" gradientUnits="userSpaceOnUse">
      <stop offset="0" stop-color="#000"/>
      <stop offset=".03" stop-color="#060109"/>
      <stop offset=".18" stop-color="#220932"/>
      <stop offset=".33" stop-color="#3a1053"/>
      <stop offset=".49" stop-color="#4c156d"/>
      <stop offset=".65" stop-color="#581980"/>
      <stop offset=".82" stop-color="#601b8b"/>
      <stop offset="1" stop-color="#631c8f"/>
    </linearGradient>
    <linearGradient id="Degradado_sin_nombre_24-2" data-name="Degradado sin nombre 24" x1="2.14" y1="31.62" x2="16.08" y2="31.62" xlink:href="#Degradado_sin_nombre_24"/>
    <linearGradient id="Degradado_sin_nombre_24-3" data-name="Degradado sin nombre 24" x1="2.76" y1="5.88" x2="33.09" y2="5.88" xlink:href="#Degradado_sin_nombre_24"/>
    <linearGradient id="Degradado_sin_nombre_24-4" data-name="Degradado sin nombre 24" x1="19.78" y1="16.48" x2="35.84" y2="16.48" xlink:href="#Degradado_sin_nombre_24"/>
    <linearGradient id="Degradado_sin_nombre_24-5" data-name="Degradado sin nombre 24" x1="0" y1="16.49" x2="16.07" y2="16.49" xlink:href="#Degradado_sin_nombre_24"/>
  </defs>
  <path class="cls-1" d="m19.78,41.51c3.92.06,7.97.06,11.88,0,2.48-.03,2.03-2.31,2.03-3.95v-11.85c0-1.58.45-3.96-1.94-4-3.93-.07-8.01-.04-11.95,0v19.8s-.02,0-.02,0Z"/>
  <path class="cls-4" d="m16.07,41.51v-19.8c-3.96,0-7.94-.05-11.89,0-2.31.03-2.02,1.94-2.02,3.93v11.85c0,.71-.09,2.28.13,2.84.27.7.88,1.16,1.82,1.18,3.93.11,8.02,0,11.97,0h-.01Z"/>
  <path class="cls-3" d="m11.44,9.57c-4.91.55-6.85-2.08-7.17-2.23-.92-.43-2.83.83-.06,2.73,1.59,1.09,3.65,1.63,6.02,1.66,5,.06,10.35,0,15.39,0,2.27,0,4.5-.6,6.01-1.68,2.71-1.93.99-3.07.09-2.81-.96.28-1.23,2.53-7.29,2.34.12-.16.91-.55,1.11-.67,1.04-.66,2.15-1.73,2.67-2.98,1.57-3.81-2.4-8.2-7.08-4.57-.68.53-1.28,1.21-1.83,1.94-.67.91-1.21,2.14-1.38,2.36-.31-.35-1.09-2.65-3.22-4.3-6.14-4.76-11.38,4.29-3.26,8.2h0Zm5.19-1.09c-.1-1.43-1.53-3.7-2.2-4.47-.66-.77-3.16-2.88-4.47-1.33-2.34,2.77,2.78,6.21,6.66,5.8h.01Zm2.59,0c1.87.2,4.04-.59,5.27-1.4,3.45-2.26,1.86-6.03-1.14-4.59-.82.39-1.32.88-1.9,1.48-.63.65-2.16,3.18-2.24,4.51h0Z"/>
  <path class="cls-2" d="m19.78,20.31c1.2,0,14.2.11,14.79-.09,1.49-.49,1.26-1.98,1.26-3.7s.26-3.21-1.21-3.75c-.61-.22-13.66-.12-14.84-.11v7.64h0Z"/>
  <path class="cls-5" d="m16.07,20.32v-7.65c-1.27,0-14.19-.11-14.79.09C-.23,13.26.02,14.73.02,16.45s-.24,3.21,1.2,3.76c.62.23,13.59.11,14.85.11h0Z"/>
</svg>